<svg xmlns="http://www.w3.org/2000/svg" xmlns:xlink="http://www.w3.org/1999/xlink" width="500" zoomAndPan="magnify" viewBox="0 0 375 374.999991" height="500" preserveAspectRatio="xMidYMid meet" version="1.0"><defs><clipPath id="f3ffb18bbb"><path d="M 28.085938 5.558594 L 349.835938 5.558594 L 349.835938 364.808594 L 28.085938 364.808594 Z M 28.085938 5.558594 " clip-rule="nonzero"/></clipPath></defs><path fill="#039be5" d="M 25.152344 12.40625 L 49.492188 323.589844 C 49.859375 328.261719 53.023438 332.246094 57.492188 333.664062 L 185.558594 374.242188 C 187.824219 374.960938 190.257812 374.960938 192.519531 374.242188 L 320.585938 333.664062 C 325.058594 332.246094 328.222656 328.261719 328.589844 323.589844 L 352.925781 12.40625 C 353.449219 5.714844 348.160156 0 341.445312 0 L 36.636719 0 C 29.921875 0 24.632812 5.714844 25.152344 12.40625 Z M 290.511719 108.957031 L 131.898438 108.957031 L 136.683594 153.074219 L 287.0625 153.074219 L 277.226562 278.84375 L 189.039062 306.785156 L 100.855469 278.84375 L 95.714844 213.136719 L 142.003906 213.136719 L 142.003906 245.367188 L 190.277344 258.316406 L 238.265625 245.367188 L 241.988281 194 L 94.21875 194 L 84.410156 68.558594 L 293.671875 68.558594 Z M 290.511719 108.957031 " fill-opacity="1" fill-rule="nonzero"/><g clip-path="url(#f3ffb18bbb)"><path fill="#039be5" d="M 349.785156 5.558594 L 28.132812 5.558594 L 56.515625 326.992188 L 188.960938 364.808594 L 321.402344 326.992188 Z M 349.785156 5.558594 " fill-opacity="1" fill-rule="nonzero"/></g><path fill="#039be5" d="M 188.960938 33.921875 L 188.960938 335.503906 L 294.914062 305.25 L 318.566406 33.921875 Z M 188.960938 33.921875 " fill-opacity="1" fill-rule="nonzero"/><path fill="#ffffff" d="M 275.046875 81.191406 L 188.960938 81.191406 L 188.960938 119.007812 L 235.316406 119.007812 L 232.476562 156.824219 L 188.960938 156.824219 L 188.960938 194.636719 L 230.585938 194.636719 L 227.746094 237.179688 L 188.960938 250.417969 L 188.960938 290.125 L 263.695312 265.542969 L 270.316406 156.824219 Z M 275.046875 81.191406 " fill-opacity="1" fill-rule="nonzero"/><path fill="#eeeeee" d="M 188.960938 81.191406 L 188.960938 119.007812 L 104.761719 119.007812 L 101.925781 81.191406 Z M 145.441406 156.824219 L 147.335938 194.636719 L 188.960938 194.636719 L 188.960938 156.824219 Z M 149.226562 213.546875 L 111.386719 213.546875 L 114.222656 265.542969 L 188.960938 290.125 L 188.960938 250.417969 L 150.171875 237.179688 Z M 149.226562 213.546875 " fill-opacity="1" fill-rule="nonzero"/></svg>