<svg xmlns="http://www.w3.org/2000/svg" width="500" viewBox="0 0 375 375" height="500" version="1.0"><path fill="#f03c2e" d="M367.922 170.8 204.199 7.079a25.1 25.1 0 0 0-1.754-1.594c-.613-.5-1.246-.968-1.906-1.41a23.79 23.79 0 0 0-4.172-2.23c-.73-.305-1.476-.57-2.23-.801a23.292 23.292 0 0 0-2.301-.574 22.756 22.756 0 0 0-2.344-.348 24.011 24.011 0 0 0-7.078.348c-.777.152-1.543.344-2.3.574-.755.23-1.5.496-2.231.8a23.79 23.79 0 0 0-4.172 2.231c-.66.442-1.293.91-1.906 1.41a25.1 25.1 0 0 0-1.754 1.594l-33.985 33.984 43.125 43.126c10.032-3.516 21.516-1.114 29.508 6.878.946.95 1.82 1.957 2.63 3.028a28.813 28.813 0 0 1 3.866 7 28.743 28.743 0 0 1 1.79 7.797c.113 1.336.136 2.671.062 4.011a27.796 27.796 0 0 1-.496 3.977 28.73 28.73 0 0 1-1.043 3.871l41.566 41.566c10.055-3.468 21.656-1.23 29.684 6.82a28.826 28.826 0 0 1 3.578 4.355 28.647 28.647 0 0 1 2.656 4.969c.36.872.68 1.759.953 2.657a28.91 28.91 0 0 1 .688 13.957 28.557 28.557 0 0 1-.688 2.735 28.61 28.61 0 0 1-3.61 7.629c-.519.78-1.081 1.539-1.679 2.265a28.212 28.212 0 0 1-1.894 2.09 29.106 29.106 0 0 1-2.09 1.894 29.522 29.522 0 0 1-2.266 1.68 28.127 28.127 0 0 1-2.422 1.45 28.14 28.14 0 0 1-2.55 1.206 28.615 28.615 0 0 1-5.395 1.633 28.342 28.342 0 0 1-5.61.55c-.94.001-1.878-.046-2.816-.136a29.363 29.363 0 0 1-2.793-.418 29.022 29.022 0 0 1-5.39-1.637 30.414 30.414 0 0 1-2.551-1.206 29.133 29.133 0 0 1-2.418-1.454 28.116 28.116 0 0 1-2.266-1.683 28.212 28.212 0 0 1-2.09-1.895c-8.437-8.437-10.523-20.859-6.257-31.254l-38.766-38.765V241.77a29.15 29.15 0 0 1 7.617 5.437 29.106 29.106 0 0 1 1.895 2.09 28.07 28.07 0 0 1 1.68 2.266c.523.78 1.003 1.59 1.449 2.417a28.946 28.946 0 0 1 2.156 5.203c.273.903.5 1.813.683 2.739.184.922.325 1.851.415 2.789a28.268 28.268 0 0 1 0 5.633c-.09.937-.23 1.867-.415 2.789a28.615 28.615 0 0 1-5.968 12.625 29.106 29.106 0 0 1-1.895 2.09 29.106 29.106 0 0 1-2.09 1.894 28.07 28.07 0 0 1-2.265 1.68 29.092 29.092 0 0 1-2.418 1.45 28.946 28.946 0 0 1-5.203 2.156c-.903.273-1.813.5-2.739.683-.922.184-1.851.324-2.789.414a28.268 28.268 0 0 1-5.632 0c-.938-.09-1.868-.23-2.79-.414a28.615 28.615 0 0 1-12.625-5.969 29.106 29.106 0 0 1-2.09-1.894 27.447 27.447 0 0 1-1.894-2.09 28.762 28.762 0 0 1-1.684-2.262 29.202 29.202 0 0 1-1.453-2.422 30.338 30.338 0 0 1-1.207-2.547 29.022 29.022 0 0 1-1.636-5.39 29.35 29.35 0 0 1-.414-2.793 28.268 28.268 0 0 1 0-5.633c.093-.938.23-1.867.414-2.793a29.022 29.022 0 0 1 1.637-5.39c.363-.868.765-1.72 1.206-2.548.446-.832.93-1.636 1.453-2.421a28.762 28.762 0 0 1 1.684-2.262 27.447 27.447 0 0 1 1.895-2.09c2.777-2.766 5.859-4.863 9.41-6.27v-102.96a28.536 28.536 0 0 1-9.41-6.27 29.301 29.301 0 0 1-2.774-3.21 29.008 29.008 0 0 1-2.265-3.587 28.138 28.138 0 0 1-1.715-3.879 28.55 28.55 0 0 1-1.125-4.09 28.302 28.302 0 0 1-.512-4.21 28.481 28.481 0 0 1 .117-4.243 28.584 28.584 0 0 1 2.086-8.199l-42.539-42.516L7.066 169.922a25.1 25.1 0 0 0-1.593 1.754c-.5.613-.973 1.246-1.414 1.906a25.396 25.396 0 0 0-1.22 2.031c-.37.7-.71 1.414-1.015 2.145a24.46 24.46 0 0 0-1.375 4.531c-.152.777-.27 1.559-.347 2.344a24.011 24.011 0 0 0 .347 7.082 24.46 24.46 0 0 0 1.375 4.531c.305.73.645 1.445 1.016 2.145.375.695.781 1.375 1.219 2.03.441.661.914 1.294 1.414 1.907a25.1 25.1 0 0 0 1.593 1.754l163.735 163.711a25.1 25.1 0 0 0 1.754 1.594c.613.5 1.246.968 1.906 1.41a23.79 23.79 0 0 0 4.172 2.23c.73.305 1.476.57 2.23.801.758.23 1.524.422 2.301.574.777.157 1.559.274 2.344.348a24.011 24.011 0 0 0 7.078-.348 23.292 23.292 0 0 0 2.3-.574c.755-.23 1.5-.496 2.231-.8a23.79 23.79 0 0 0 4.172-2.231c.66-.442 1.293-.91 1.906-1.41a25.1 25.1 0 0 0 1.754-1.594l162.973-162.715a25.1 25.1 0 0 0 1.594-1.754c.5-.613.972-1.246 1.414-1.906.437-.656.843-1.336 1.218-2.031.372-.7.711-1.414 1.016-2.145a24.46 24.46 0 0 0 1.375-4.531 24.03 24.03 0 0 0 0-9.426 24.46 24.46 0 0 0-1.375-4.531 25.587 25.587 0 0 0-1.016-2.145 25.396 25.396 0 0 0-1.218-2.03 25.056 25.056 0 0 0-1.414-1.907 25.1 25.1 0 0 0-1.594-1.754"/></svg>