<svg xmlns="http://www.w3.org/2000/svg" xmlns:xlink="http://www.w3.org/1999/xlink" width="500" zoomAndPan="magnify" viewBox="0 0 375 374.999991" height="500" preserveAspectRatio="xMidYMid meet" version="1.0"><defs><clipPath id="26c26a3a30"><path d="M 127.585938 42.097656 L 301.609375 42.097656 L 301.609375 337.996094 L 127.585938 337.996094 Z M 127.585938 42.097656 " clip-rule="nonzero"/></clipPath><clipPath id="40f47459ba"><path d="M 144.835938 42.097656 L 283.980469 42.097656 C 288.554688 42.097656 292.945312 43.917969 296.179688 47.152344 C 299.414062 50.386719 301.230469 54.773438 301.230469 59.347656 L 301.230469 320.25 C 301.230469 324.824219 299.414062 329.210938 296.179688 332.449219 C 292.945312 335.683594 288.554688 337.5 283.980469 337.5 L 144.835938 337.5 C 140.257812 337.5 135.871094 335.683594 132.636719 332.449219 C 129.402344 329.210938 127.585938 324.824219 127.585938 320.25 L 127.585938 59.347656 C 127.585938 54.773438 129.402344 50.386719 132.636719 47.152344 C 135.871094 43.917969 140.257812 42.097656 144.835938 42.097656 " clip-rule="nonzero"/></clipPath><clipPath id="f089470f19"><path d="M 75 39.800781 L 187.5 39.800781 L 187.5 335.699219 L 75 335.699219 Z M 75 39.800781 " clip-rule="nonzero"/></clipPath><clipPath id="47992db9a8"><path d="M 92.25 39.800781 L 170.25 39.800781 C 174.824219 39.800781 179.210938 41.617188 182.449219 44.851562 C 185.683594 48.085938 187.5 52.476562 187.5 57.050781 L 187.5 317.949219 C 187.5 322.523438 185.683594 326.914062 182.449219 330.148438 C 179.210938 333.382812 174.824219 335.199219 170.25 335.199219 L 92.25 335.199219 C 87.675781 335.199219 83.289062 333.382812 80.050781 330.148438 C 76.816406 326.914062 75 322.523438 75 317.949219 L 75 57.050781 C 75 52.476562 76.816406 48.085938 80.050781 44.851562 C 83.289062 41.617188 87.675781 39.800781 92.25 39.800781 " clip-rule="nonzero"/></clipPath></defs><g clip-path="url(#26c26a3a30)"><g clip-path="url(#40f47459ba)"><path fill="#ffffff" d="M 127.585938 42.097656 L 301.023438 42.097656 L 301.023438 337.410156 L 127.585938 337.410156 Z M 127.585938 42.097656 " fill-opacity="1" fill-rule="nonzero"/></g></g><g clip-path="url(#f089470f19)"><g clip-path="url(#47992db9a8)"><path fill="#eeeeee" d="M 75 39.800781 L 187.5 39.800781 L 187.5 335.113281 L 75 335.113281 Z M 75 39.800781 " fill-opacity="1" fill-rule="nonzero"/></g></g><path fill="#ed5520" d="M 23.726562 12.40625 L 48.066406 323.589844 C 48.429688 328.261719 51.597656 332.246094 56.066406 333.664062 L 184.132812 374.242188 C 186.398438 374.960938 188.828125 374.960938 191.09375 374.242188 L 319.160156 333.664062 C 323.632812 332.246094 326.796875 328.261719 327.164062 323.589844 L 351.5 12.40625 C 352.023438 5.714844 346.734375 0 340.019531 0 L 35.210938 0 C 28.496094 0 23.207031 5.714844 23.726562 12.40625 Z M 289.085938 108.957031 L 130.472656 108.957031 L 135.257812 153.074219 L 285.636719 153.074219 L 275.800781 278.84375 L 187.613281 306.785156 L 99.429688 278.84375 L 94.289062 213.136719 L 140.578125 213.136719 L 140.578125 245.367188 L 188.851562 258.316406 L 236.839844 245.367188 L 240.5625 194 L 92.792969 194 L 82.980469 68.558594 L 292.246094 68.558594 Z M 289.085938 108.957031 " fill-opacity="1" fill-rule="nonzero"/></svg>