<svg xmlns="http://www.w3.org/2000/svg" xmlns:xlink="http://www.w3.org/1999/xlink" width="500" zoomAndPan="magnify" viewBox="0 0 375 374.999991" height="500" preserveAspectRatio="xMidYMid meet" version="1.0"><defs><clipPath id="3c8d1375e8"><path d="M 187.5 49 L 309.375 49 L 309.375 328 L 187.5 328 Z M 187.5 49 " clip-rule="nonzero"/></clipPath><clipPath id="4a7ef72e91"><path d="M 204.75 49 L 291.835938 49 C 296.410156 49 300.796875 50.816406 304.035156 54.050781 C 307.269531 57.285156 309.085938 61.675781 309.085938 66.25 L 309.085938 310.914062 C 309.085938 315.492188 307.269531 319.878906 304.035156 323.113281 C 300.796875 326.347656 296.410156 328.164062 291.835938 328.164062 L 204.75 328.164062 C 200.175781 328.164062 195.789062 326.347656 192.550781 323.113281 C 189.316406 319.878906 187.5 315.492188 187.5 310.914062 L 187.5 66.25 C 187.5 61.675781 189.316406 57.285156 192.550781 54.050781 C 195.789062 50.816406 200.175781 49 204.75 49 " clip-rule="nonzero"/></clipPath><clipPath id="d6fc9c124e"><path d="M 65.914062 47.917969 L 187.789062 47.917969 L 187.789062 327 L 65.914062 327 Z M 65.914062 47.917969 " clip-rule="nonzero"/></clipPath><clipPath id="397cf2fa38"><path d="M 83.164062 47.917969 L 170.25 47.917969 C 174.824219 47.917969 179.210938 49.734375 182.449219 52.96875 C 185.683594 56.203125 187.5 60.589844 187.5 65.167969 L 187.5 309.832031 C 187.5 314.410156 185.683594 318.796875 182.449219 322.03125 C 179.210938 325.265625 174.824219 327.082031 170.25 327.082031 L 83.164062 327.082031 C 78.589844 327.082031 74.203125 325.265625 70.964844 322.03125 C 67.730469 318.796875 65.914062 314.410156 65.914062 309.832031 L 65.914062 65.167969 C 65.914062 60.589844 67.730469 56.203125 70.964844 52.96875 C 74.203125 49.734375 78.589844 47.917969 83.164062 47.917969 " clip-rule="nonzero"/></clipPath><clipPath id="784157a75a"><path d="M 24.089844 4.242188 L 349.589844 4.242188 L 349.589844 369.492188 L 24.089844 369.492188 Z M 24.089844 4.242188 " clip-rule="nonzero"/></clipPath></defs><path fill="#ffc44d" d="M 23.726562 12.40625 L 48.066406 323.589844 C 48.429688 328.261719 51.597656 332.246094 56.066406 333.664062 L 184.132812 374.242188 C 186.398438 374.960938 188.828125 374.960938 191.09375 374.242188 L 319.160156 333.664062 C 323.632812 332.246094 326.796875 328.261719 327.164062 323.589844 L 351.5 12.40625 C 352.023438 5.714844 346.734375 0 340.019531 0 L 35.210938 0 C 28.496094 0 23.207031 5.714844 23.726562 12.40625 Z M 289.085938 108.957031 L 130.472656 108.957031 L 135.257812 153.074219 L 285.636719 153.074219 L 275.800781 278.84375 L 187.613281 306.785156 L 99.429688 278.84375 L 94.289062 213.136719 L 140.578125 213.136719 L 140.578125 245.367188 L 188.851562 258.316406 L 236.839844 245.367188 L 240.5625 194 L 92.792969 194 L 82.980469 68.558594 L 292.246094 68.558594 Z M 289.085938 108.957031 " fill-opacity="1" fill-rule="nonzero"/><g clip-path="url(#3c8d1375e8)"><g clip-path="url(#4a7ef72e91)"><path fill="#fefefe" d="M 187.5 49 L 309.375 49 L 309.375 327.90625 L 187.5 327.90625 Z M 187.5 49 " fill-opacity="1" fill-rule="nonzero"/></g></g><g clip-path="url(#d6fc9c124e)"><g clip-path="url(#397cf2fa38)"><path fill="#eeeeee" d="M 65.914062 47.917969 L 187.789062 47.917969 L 187.789062 326.824219 L 65.914062 326.824219 Z M 65.914062 47.917969 " fill-opacity="1" fill-rule="nonzero"/></g></g><g clip-path="url(#784157a75a)"><path fill="#ffc44d" d="M 347.796875 7.273438 C 346.292969 5.636719 344.179688 4.699219 341.953125 4.699219 L 32.515625 4.699219 C 30.289062 4.699219 28.175781 5.636719 26.671875 7.273438 C 25.164062 8.914062 24.429688 11.117188 24.628906 13.324219 L 52.503906 325.597656 C 52.796875 328.859375 55.070312 331.609375 58.222656 332.511719 L 185.015625 368.730469 C 185.722656 368.929688 186.457031 369.03125 187.1875 369.03125 C 187.914062 369.03125 188.652344 368.929688 189.355469 368.730469 L 316.261719 332.511719 C 319.414062 331.609375 321.6875 328.859375 321.980469 325.597656 L 349.84375 13.324219 C 350.039062 11.117188 349.296875 8.914062 347.796875 7.273438 Z M 84.277344 218.578125 L 139.714844 233.960938 L 139.714844 75.980469 L 171.394531 75.980469 L 171.394531 281.910156 L 84.277344 257.742188 Z M 290.617188 163.105469 L 282.269531 260.128906 L 203.074219 281.910156 L 203.074219 245.46875 L 256.53125 230.773438 L 258.511719 201.074219 L 203.074219 210.625 L 203.074219 75.980469 L 298.109375 75.980469 L 295.378906 107.664062 L 234.753906 107.664062 L 234.753906 171.023438 Z M 290.617188 163.105469 " fill-opacity="1" fill-rule="nonzero"/></g></svg>