<svg xmlns="http://www.w3.org/2000/svg" xmlns:xlink="http://www.w3.org/1999/xlink" width="500" zoomAndPan="magnify" viewBox="0 0 375 374.999991" height="500" preserveAspectRatio="xMidYMid meet" version="1.0"><path fill="#f34e39" d="M 375 61.28125 C 372.515625 58.265625 369.296875 54.203125 366.125 50.09375 L 365.15625 48.765625 L 365.15625 48.609375 C 361.25 43.296875 358.4375 44.078125 355.3125 44.859375 C 352.1875 45.640625 280.78125 58.453125 276.40625 58.921875 C 272.03125 59.703125 273.4375 62.046875 275.3125 64.546875 L 337.8125 150.515625 L 375 141.625 Z M 375 61.28125 " fill-opacity="1" fill-rule="nonzero"/><path fill="#f34e39" d="M 0.3125 231.65625 L 67.96875 215.40625 C 73.4375 214.15625 72.03125 213.53125 69.375 208.6875 L 0.3125 89.40625 Z M 0.3125 231.65625 " fill-opacity="1" fill-rule="nonzero"/><path fill="#f34e39" d="M 50 375 L 162.34375 375 C 147.65625 351.078125 107.65625 278.859375 86.875 241.1875 L 86.71875 241.1875 L 86.71875 241.03125 L 0 263.703125 L 0 325.140625 C 0.09375 352.6875 22.4375 375 50 375 Z M 50 375 " fill-opacity="1" fill-rule="nonzero"/><path fill="#f34e39" d="M 375 199.609375 L 375 165.375 L 353.90625 171.171875 L 355.46875 173.359375 Z M 375 199.609375 " fill-opacity="1" fill-rule="nonzero"/><path fill="#f34e39" d="M 315 156 L 244.21875 55.640625 C 238.28125 47.359375 244.21875 43.609375 253.90625 42.046875 C 263.28125 40.328125 345.15625 26.578125 352.34375 25.640625 C 358.125 24.703125 362.96875 22.828125 371.09375 30.328125 C 363.59375 12.5 345.9375 0 325.3125 0 L 50 0 C 49.984375 0 49.953125 0 49.921875 0 C 25.734375 0 5.59375 17.28125 1.09375 40.484375 L 100.9375 207.265625 Z M 315 156 " fill-opacity="1" fill-rule="nonzero"/><path fill="#f34e39" d="M 375 236.34375 L 335 181.640625 C 332.5 177.734375 331.09375 176.953125 325 178.984375 L 116.25 233.375 C 116.25 233.375 180.3125 344.359375 185.15625 351.390625 C 190.15625 358.578125 193.125 357.953125 197.03125 356.390625 C 199.84375 355.140625 318.90625 314.8125 375 295.890625 Z M 375 236.34375 " fill-opacity="1" fill-rule="nonzero"/><path fill="#f34e39" d="M 374.84375 329.046875 L 246.875 374.84375 L 325.3125 374.84375 C 351.5625 374.84375 372.96875 354.515625 374.84375 329.046875 Z M 374.84375 329.046875 " fill-opacity="1" fill-rule="nonzero"/></svg>