<svg xmlns="http://www.w3.org/2000/svg" xmlns:xlink="http://www.w3.org/1999/xlink" width="500" zoomAndPan="magnify" viewBox="0 0 375 374.999991" height="500" preserveAspectRatio="xMidYMid meet" version="1.0"><defs><clipPath id="5a94e0e8f8"><path d="M 0 25.3125 L 375 25.3125 L 375 350 L 0 350 Z M 0 25.3125 " clip-rule="nonzero"/></clipPath></defs><g clip-path="url(#5a94e0e8f8)"><path fill="#007fff" d="M 316.105469 247.023438 C 317.6875 246.113281 319.007812 244.800781 319.925781 243.21875 C 320.84375 241.636719 321.328125 239.84375 321.335938 238.011719 L 321.523438 177.65625 C 321.527344 175.824219 322.011719 174.03125 322.929688 172.449219 C 323.847656 170.867188 325.167969 169.554688 326.75 168.640625 L 359.433594 149.847656 C 361.015625 148.9375 362.8125 148.460938 364.640625 148.460938 C 366.464844 148.464844 368.261719 148.949219 369.839844 149.863281 C 371.417969 150.78125 372.734375 152.097656 373.644531 153.679688 C 374.558594 155.265625 375.039062 157.0625 375.039062 158.890625 L 375.039062 268.625 C 375.039062 270.460938 374.558594 272.261719 373.636719 273.851562 C 372.71875 275.4375 371.398438 276.753906 369.808594 277.667969 L 246.472656 348.59375 C 244.894531 349.5 243.109375 349.976562 241.292969 349.980469 C 239.476562 349.980469 237.691406 349.507812 236.113281 348.605469 L 139.320312 293.175781 C 137.726562 292.265625 136.402344 290.949219 135.480469 289.359375 C 134.554688 287.769531 134.070312 285.964844 134.070312 284.125 L 134.070312 228.792969 C 134.070312 228.730469 134.144531 228.691406 134.207031 228.71875 C 134.257812 228.75 134.328125 228.71875 134.328125 228.644531 L 134.328125 228.585938 C 134.328125 228.542969 134.351562 228.5 134.394531 228.480469 L 214.113281 182.628906 C 214.183594 182.585938 214.152344 182.472656 214.070312 182.472656 C 214.046875 182.472656 214.027344 182.464844 214.011719 182.449219 C 213.996094 182.433594 213.984375 182.410156 213.984375 182.390625 L 214.144531 128.140625 C 214.152344 126.308594 213.675781 124.503906 212.761719 122.914062 C 211.851562 121.320312 210.539062 120 208.953125 119.078125 C 207.367188 118.15625 205.566406 117.671875 203.734375 117.671875 C 201.902344 117.667969 200.101562 118.152344 198.515625 119.066406 L 139.269531 153.25 C 137.6875 154.160156 135.894531 154.640625 134.070312 154.640625 C 132.246094 154.640625 130.453125 154.160156 128.871094 153.25 L 69.4375 118.988281 C 67.851562 118.074219 66.058594 117.59375 64.230469 117.59375 C 62.402344 117.597656 60.609375 118.078125 59.027344 118.992188 C 57.445312 119.910156 56.128906 121.222656 55.214844 122.808594 C 54.300781 124.394531 53.820312 126.191406 53.820312 128.019531 L 53.820312 226.0625 C 53.820312 227.890625 53.34375 229.683594 52.433594 231.269531 C 51.523438 232.851562 50.214844 234.167969 48.636719 235.085938 C 47.058594 236.003906 45.265625 236.492188 43.441406 236.5 C 41.613281 236.503906 39.820312 236.03125 38.234375 235.125 L 5.25 216.242188 C 3.652344 215.332031 2.328125 214.007812 1.402344 212.417969 C 0.480469 210.824219 -0.00390625 209.011719 0 207.171875 L 0.292969 35.804688 C 0.296875 33.976562 0.78125 32.183594 1.695312 30.605469 C 2.609375 29.023438 3.921875 27.710938 5.503906 26.796875 C 7.082031 25.886719 8.875 25.402344 10.699219 25.402344 C 12.523438 25.398438 14.316406 25.875 15.898438 26.785156 L 128.882812 91.75 C 130.460938 92.660156 132.25 93.136719 134.070312 93.136719 C 135.890625 93.136719 137.679688 92.660156 139.257812 91.75 L 252.210938 26.78125 C 253.792969 25.871094 255.589844 25.394531 257.417969 25.394531 C 259.246094 25.398438 261.039062 25.882812 262.621094 26.800781 C 264.203125 27.71875 265.515625 29.035156 266.425781 30.621094 C 267.339844 32.207031 267.816406 34.003906 267.816406 35.835938 L 267.816406 207.242188 C 267.816406 209.074219 267.335938 210.878906 266.417969 212.464844 C 265.503906 214.054688 264.183594 215.371094 262.597656 216.285156 L 203.445312 250.390625 C 201.855469 251.308594 200.535156 252.628906 199.621094 254.222656 C 198.703125 255.8125 198.222656 257.617188 198.230469 259.453125 C 198.234375 261.289062 198.722656 263.089844 199.644531 264.675781 C 200.566406 266.265625 201.890625 267.578125 203.484375 268.488281 L 236.117188 287.085938 C 237.691406 287.984375 239.476562 288.457031 241.289062 288.453125 C 243.105469 288.449219 244.886719 287.96875 246.460938 287.0625 Z M 322.949219 93.265625 C 322.949219 95.109375 323.441406 96.921875 324.367188 98.511719 C 325.296875 100.105469 326.632812 101.425781 328.234375 102.332031 C 329.839844 103.242188 331.652344 103.707031 333.496094 103.6875 C 335.339844 103.664062 337.140625 103.152344 338.722656 102.203125 L 369.976562 83.429688 C 371.519531 82.503906 372.796875 81.195312 373.683594 79.628906 C 374.570312 78.0625 375.039062 76.292969 375.039062 74.492188 L 375.039062 36.230469 C 375.035156 34.386719 374.546875 32.578125 373.617188 30.988281 C 372.6875 29.394531 371.351562 28.078125 369.746094 27.171875 C 368.144531 26.261719 366.328125 25.796875 364.488281 25.820312 C 362.648438 25.84375 360.847656 26.355469 359.265625 27.304688 L 328.011719 46.078125 C 326.46875 47.003906 325.191406 48.3125 324.304688 49.878906 C 323.417969 51.445312 322.949219 53.214844 322.949219 55.015625 L 322.949219 93.273438 Z M 322.949219 93.265625 " fill-opacity="1" fill-rule="nonzero"/></g></svg>