<svg xmlns="http://www.w3.org/2000/svg" width="500" viewBox="0 0 375 375" height="500" version="1.0"><defs><clipPath id="a"><path d="M23.438 0h328.5v375h-328.5Zm0 0"/></clipPath></defs><g clip-path="url(#a)"><path fill="#209237" d="M351.938 281.25V93.75L187.688 0 23.438 93.75v187.5L187.688 375Zm-216.872-22.047a20.058 20.058 0 0 1-20.132 20.156h-1.192c-11.387 0-20.383-9.375-20.383-20.156V115.781c0-11.015 9.95-20.156 23.7-20.156 10.214 0 21.808 3.984 28.91 12.656l94.324 111.578V115.781c0-11.265 9.48-20.156 20.383-20.156h1.191c11.371 0 20.383 9.375 20.383 20.156V259.22h.234c0 11.015-10.214 20.156-24.152 20.156-9.965 0-21.355-3.984-28.457-12.656L135.066 155.14Zm0 0"/></g></svg>