<svg xmlns="http://www.w3.org/2000/svg" xmlns:xlink="http://www.w3.org/1999/xlink" width="500" zoomAndPan="magnify" viewBox="0 0 375 374.999991" height="500" preserveAspectRatio="xMidYMid meet" version="1.0"><defs><clipPath id="17e957d2e2"><path d="M 21.328125 1 L 353.578125 1 L 353.578125 375 L 21.328125 375 Z M 21.328125 1 " clip-rule="nonzero"/></clipPath></defs><g clip-path="url(#17e957d2e2)"><path fill="#539e43" d="M 187.453125 374.949219 C 182.296875 374.949219 177.492188 373.574219 173.035156 371.175781 L 127.375 344.042969 C 120.507812 340.273438 123.941406 338.898438 126.003906 338.210938 C 135.269531 335.117188 136.988281 334.429688 146.601562 328.933594 C 147.628906 328.25 149.003906 328.597656 150.035156 329.285156 L 185.042969 350.222656 C 186.417969 350.910156 188.140625 350.910156 189.175781 350.222656 L 326.140625 270.910156 C 327.515625 270.222656 328.199219 268.847656 328.199219 267.125 L 328.199219 108.820312 C 328.199219 107.105469 327.515625 105.730469 326.140625 105.042969 L 189.175781 26.0625 C 187.804688 25.375 186.078125 25.375 185.042969 26.0625 L 48.078125 105.042969 C 46.699219 105.730469 46.015625 107.449219 46.015625 108.820312 L 46.015625 267.128906 C 46.015625 268.5 46.699219 270.222656 48.074219 270.910156 L 85.492188 292.539062 C 105.75 302.839844 118.449219 290.828125 118.449219 278.800781 L 118.449219 122.554688 C 118.449219 120.496094 120.167969 118.4375 122.570312 118.4375 L 140.078125 118.4375 C 142.136719 118.4375 144.199219 120.152344 144.199219 122.558594 L 144.199219 278.804688 C 144.199219 305.9375 129.433594 321.734375 103.6875 321.734375 C 95.792969 321.734375 89.613281 321.734375 72.105469 313.140625 L 36.058594 292.539062 C 27.132812 287.394531 21.640625 277.78125 21.640625 267.476562 L 21.640625 109.171875 C 21.640625 98.863281 27.132812 89.25 36.058594 84.097656 L 173.035156 4.773438 C 181.609375 -0.03125 193.296875 -0.03125 201.871094 4.773438 L 338.847656 84.097656 C 347.773438 89.25 353.265625 98.863281 353.265625 109.167969 L 353.265625 267.472656 C 353.265625 277.773438 347.773438 287.390625 338.847656 292.53125 L 201.871094 371.859375 C 197.414062 373.921875 192.257812 374.945312 187.453125 374.945312 Z M 229.683594 266.101562 C 169.601562 266.101562 157.242188 238.617188 157.242188 215.269531 C 157.242188 213.207031 158.953125 211.148438 161.363281 211.148438 L 179.214844 211.148438 C 181.273438 211.148438 182.984375 212.523438 182.984375 214.582031 C 185.730469 232.789062 193.632812 241.714844 230.019531 241.714844 C 258.855469 241.714844 271.214844 235.183594 271.214844 219.738281 C 271.214844 210.8125 267.78125 204.28125 222.816406 199.824219 C 185.394531 196.039062 162.050781 187.796875 162.050781 157.929688 C 162.050781 130.109375 185.394531 113.628906 224.527344 113.628906 C 268.46875 113.628906 290.101562 128.738281 292.847656 161.699219 C 292.847656 162.738281 292.5 163.761719 291.8125 164.796875 C 291.125 165.484375 290.101562 166.171875 289.066406 166.171875 L 271.214844 166.171875 C 269.503906 166.171875 267.78125 164.796875 267.445312 163.074219 C 263.324219 144.195312 252.675781 138.015625 224.527344 138.015625 C 192.945312 138.015625 189.175781 149.003906 189.175781 157.242188 C 189.175781 167.195312 193.632812 170.292969 236.199219 175.785156 C 278.429688 181.28125 298.339844 189.171875 298.339844 218.703125 C 297.992188 248.921875 273.273438 266.101562 229.683594 266.101562 Z M 229.683594 266.101562 " fill-opacity="1" fill-rule="nonzero"/></g></svg>