<svg xmlns="http://www.w3.org/2000/svg" xmlns:xlink="http://www.w3.org/1999/xlink" width="500" zoomAndPan="magnify" viewBox="0 0 375 374.999991" height="500" preserveAspectRatio="xMidYMid meet" version="1.0"><defs><clipPath id="ac0bcd93ec"><path d="M 17.25 0 L 357.75 0 C 362.324219 0 366.710938 1.816406 369.949219 5.050781 C 373.183594 8.289062 375 12.675781 375 17.25 L 375 357.75 C 375 362.324219 373.183594 366.710938 369.949219 369.949219 C 366.710938 373.183594 362.324219 375 357.75 375 L 17.25 375 C 12.675781 375 8.289062 373.183594 5.050781 369.949219 C 1.816406 366.710938 0 362.324219 0 357.75 L 0 17.25 C 0 12.675781 1.816406 8.289062 5.050781 5.050781 C 8.289062 1.816406 12.675781 0 17.25 0 " clip-rule="nonzero"/></clipPath><clipPath id="85155f59fa"><path d="M 5.953125 6.160156 L 366.703125 6.160156 L 366.703125 366.910156 L 5.953125 366.910156 Z M 5.953125 6.160156 " clip-rule="nonzero"/></clipPath></defs><g clip-path="url(#ac0bcd93ec)"><rect x="-37.5" width="450" fill="#007acc" y="-37.499999" height="449.999989" fill-opacity="1"/></g><g clip-path="url(#85155f59fa)"><path fill="#007acc" d="M 5.953125 366.910156 L 366.703125 366.910156 L 366.703125 6.160156 L 5.953125 6.160156 Z M 5.953125 366.910156 " fill-opacity="1" fill-rule="nonzero"/></g><path fill="#ffffff" d="M 85.710938 187.71875 L 85.597656 202.503906 L 132.554688 202.503906 L 132.554688 335.921875 L 165.765625 335.921875 L 165.765625 202.503906 L 212.722656 202.503906 L 212.722656 188.015625 C 212.722656 179.996094 212.550781 173.289062 212.320312 173.121094 C 212.148438 172.894531 183.574219 172.78125 148.925781 172.839844 L 85.882812 173.007812 Z M 85.710938 187.71875 " fill-opacity="1" fill-rule="nonzero"/><path fill="#ffffff" d="M 297.046875 172.597656 C 306.207031 174.882812 313.195312 178.953125 319.609375 185.59375 C 322.917969 189.144531 327.851562 195.613281 328.246094 197.160156 C 328.359375 197.625 312.675781 208.152344 303.164062 214.058594 C 302.824219 214.28125 301.457031 212.789062 299.90625 210.507812 C 295.269531 203.742188 290.394531 200.824219 282.953125 200.316406 C 272.019531 199.570312 264.972656 205.292969 265.03125 214.859375 C 265.03125 217.664062 265.4375 219.328125 266.582031 221.609375 C 268.988281 226.597656 273.457031 229.574219 287.476562 235.644531 C 313.308594 246.75 324.355469 254.078125 331.234375 264.507812 C 338.898438 276.132812 340.617188 294.675781 335.40625 308.472656 C 329.683594 323.480469 315.480469 333.667969 295.496094 337.050781 C 289.308594 338.136719 274.65625 337.964844 268.003906 336.769531 C 253.515625 334.191406 239.777344 327.03125 231.308594 317.644531 C 227.984375 313.984375 221.515625 304.414062 221.910156 303.722656 C 222.09375 303.5 223.570312 302.582031 225.234375 301.609375 C 226.839844 300.695312 232.914062 297.199219 238.636719 293.875 L 248.992188 287.871094 L 251.179688 291.070312 C 254.207031 295.707031 260.859375 302.0625 264.859375 304.1875 C 276.375 310.25 292.171875 309.386719 299.964844 302.414062 C 303.289062 299.371094 304.65625 296.226562 304.65625 291.589844 C 304.65625 287.40625 304.148438 285.574219 301.964844 282.429688 C 299.160156 278.414062 293.4375 275.03125 277.175781 268 C 258.5625 259.984375 250.542969 254.996094 243.214844 247.089844 C 238.972656 242.507812 234.972656 235.179688 233.308594 229.050781 C 231.929688 223.964844 231.589844 211.195312 232.675781 206.039062 C 236.523438 188.058594 250.09375 175.515625 269.667969 171.796875 C 276.023438 170.597656 290.804688 171.050781 297.046875 172.597656 Z M 297.046875 172.597656 " fill-opacity="1" fill-rule="nonzero"/></svg>